<svg width="15" height="20" viewBox="0 0 15 20" fill="none" xmlns="http://www.w3.org/2000/svg">
<path d="M7.52497 8.25001C9.52698 8.25001 11.1499 6.62705 11.1499 4.62504C11.1499 2.62302 9.52698 1.00006 7.52497 1.00006C5.52295 1.00006 3.89999 2.62302 3.89999 4.62504C3.89999 6.62705 5.52295 8.25001 7.52497 8.25001Z" stroke="white" stroke-width="1.35" stroke-linecap="round" stroke-linejoin="round"/>
<path d="M1 18.4003H7.52495H14.0499V17.6142C14.0384 16.509 13.7469 15.4247 13.2027 14.4628C12.6585 13.5008 11.8794 12.6924 10.9381 12.1131C9.99682 11.5339 8.92406 11.2026 7.82006 11.1504C7.72163 11.1457 7.62323 11.1433 7.52495 11.1431C7.42667 11.1433 7.32828 11.1457 7.22985 11.1504C6.12584 11.2026 5.05308 11.5339 4.11178 12.1131C3.17049 12.6924 2.39137 13.5008 1.84719 14.4628C1.30301 15.4247 1.01154 16.509 1 17.6142V18.4003Z" stroke="white" stroke-width="1.35" stroke-linecap="round" stroke-linejoin="round"/>
</svg>
