<svg width="16" height="20" viewBox="0 0 16 20" fill="none" xmlns="http://www.w3.org/2000/svg">
<path d="M4.0722 0H13.5389C14.223 0 14.9091 0.111795 15.3881 0.608205C15.8599 1.09846 15.9491 1.77744 15.9491 2.41026V14.5128C15.9491 15.0697 15.8753 15.6174 15.5901 16.0605C15.4257 16.3161 15.1954 16.5226 14.9235 16.6585V17.5897C14.9235 18.2728 14.8127 18.959 14.3173 19.438C13.8271 19.9118 13.1481 20 12.5153 20H1.59015C1.18212 20 0.790808 19.8379 0.50229 19.5494C0.213773 19.2609 0.0516853 18.8696 0.0516853 18.4615V3.86359C0.0486084 3.35282 0.0455316 2.71487 0.185019 2.13333C0.356301 1.42359 0.751172 0.735385 1.59117 0.307692C1.93784 0.131282 2.30297 0.0615384 2.69271 0.0307692C3.06707 -2.86561e-08 3.52348 0 4.0722 0ZM1.59015 18.4615H12.5153C13.0763 18.4615 13.2158 18.3631 13.2476 18.3323C13.2732 18.3077 13.385 18.1733 13.385 17.5897V16.9231H3.12861C2.72058 16.9231 2.32927 17.0852 2.04075 17.3737C1.75223 17.6622 1.59015 18.0535 1.59015 18.4615Z" fill="#4C4C52"/>
</svg>
