<svg width="20" height="20" viewBox="0 0 20 20" fill="none" xmlns="http://www.w3.org/2000/svg">
<path d="M0.900269 18.7V7.40071C0.900269 7.06792 0.9748 6.7529 1.12386 6.45564C1.27293 6.15838 1.47832 5.91355 1.74005 5.72116L8.74037 0.41989C9.10696 0.139964 9.52555 0 9.99614 0C10.4667 0 10.8879 0.139964 11.2597 0.41989L18.26 5.71986C18.5226 5.91225 18.728 6.15751 18.8762 6.45564C19.0253 6.7529 19.0998 7.06792 19.0998 7.40071V18.7C19.0998 19.0484 18.9702 19.3522 18.7111 19.6113C18.452 19.8704 18.1482 20 17.7998 20H13.4008C13.1026 20 12.853 19.8995 12.652 19.6984C12.4509 19.4965 12.3504 19.2469 12.3504 18.9496V12.7501C12.3504 12.4528 12.2499 12.2037 12.0488 12.0026C11.8469 11.8007 11.5973 11.6997 11.3 11.6997H8.70007C8.40281 11.6997 8.15365 11.8007 7.95259 12.0026C7.75066 12.2037 7.6497 12.4528 7.6497 12.7501V18.9509C7.6497 19.2482 7.54917 19.4973 7.34811 19.6984C7.14705 19.8995 6.89789 20 6.60063 20H2.20024C1.85184 20 1.54809 19.8704 1.28896 19.6113C1.02983 19.3522 0.900269 19.0484 0.900269 18.7Z" fill="currentColor"/>
</svg>
