<svg width="18" height="20" viewBox="0 0 18 20" fill="currentColor" xmlns="http://www.w3.org/2000/svg">
<path fill-rule="evenodd" clip-rule="evenodd" d="M9.89763 0.323344C9.95475 0.241749 10.0274 0.172209 10.1114 0.118699C10.1954 0.065188 10.2891 0.0287559 10.3872 0.0114846C10.4853 -0.0057868 10.5858 -0.00355883 10.6831 0.018041C10.7803 0.0396408 10.8723 0.080189 10.9539 0.137368L17.5772 4.77464C17.6831 4.84874 17.7683 4.94868 17.8247 5.06497C17.881 5.18126 17.9067 5.31003 17.8994 5.43905C17.892 5.56807 17.8517 5.69306 17.7824 5.80215C17.7131 5.91123 17.6171 6.00079 17.5034 6.06232L15.674 7.05284L8.39668 17.4442C7.84785 18.2286 7.02915 19.1756 5.94059 19.6679C4.78127 20.1914 3.41678 20.153 1.96738 19.1392C0.517978 18.1255 0.0156415 16.855 0.110651 15.5865C0.201617 14.3938 0.811093 13.3012 1.35992 12.5169L9.89763 0.323344ZM10.7052 1.81317L5.82941 8.77716C8.3229 9.27444 9.23256 7.90995 12.662 8.71045L14.5339 6.03705C14.6015 5.94031 14.6908 5.86071 14.7947 5.80458L15.7033 5.31336L10.7052 1.81317Z" fill="#4C4C52"/>
</svg>