<svg width="25" height="24" viewBox="0 0 25 24" fill="none" xmlns="http://www.w3.org/2000/svg">
<path d="M12.5 0C14.7601 0 16.8504 0.457136 18.7709 1.37141C20.6915 2.28568 22.2098 3.52891 23.3259 5.10107C24.442 6.67318 25 8.38806 25 10.2456C25 12.1032 24.442 13.8205 23.3259 15.3975C22.2098 16.9745 20.6938 18.2201 18.7779 19.1344C16.862 20.0486 14.7693 20.5058 12.5 20.5058C11.7839 20.5058 11.0444 20.4526 10.2818 20.3462C6.97077 22.7358 5.20835 23.9452 4.99443 23.9742C4.89211 24.0129 4.79443 24.008 4.70144 23.9597C4.66423 23.9307 4.63634 23.892 4.61773 23.8436C4.59912 23.7952 4.58985 23.7517 4.58985 23.713V23.655C4.64567 23.2776 5.06881 21.7055 5.85938 18.9385C4.06436 18.0097 2.63904 16.7786 1.58343 15.2451C0.527809 13.7117 0 12.0452 0 10.2456C0 8.38806 0.558036 6.67318 1.67411 5.10107C2.79018 3.52891 4.3085 2.28568 6.22907 1.37141C8.14964 0.457136 10.2399 0 12.5 0Z" fill="#181600"/>
</svg>
